<svg xmlns="http://www.w3.org/2000/svg" viewBox="0 0 1200 478" font-family="'Hiragino Sans','Noto Sans JP',sans-serif">
<defs><linearGradient id="g" x1="0" y1="0" x2="1" y2="1"><stop offset="0" stop-color="#0499AF"/><stop offset="1" stop-color="#77D55C"/></linearGradient></defs>
<rect x="1" y="1" width="1198" height="476" rx="16" fill="#FFFFFF" stroke="#D9D9D9" stroke-width="1"/>
<rect x="48" y="40" width="140" height="46" rx="23" fill="url(#g)"/>
<text x="118" y="71" font-size="20" font-weight="700" fill="#fff" text-anchor="middle" letter-spacing="4">比較</text>
<text x="216" y="72" font-size="25" font-weight="700" fill="#000000" text-anchor="start">告知だけ vs 仕組み化の差</text>
<rect x="48" y="170" width="505" height="260" rx="16" fill="#FFFFFF" stroke="#A6A6A6" stroke-width="1"/>
<circle cx="300.5" cy="170" r="38" fill="#4A4A4A"/>
<text x="300.5" y="177" font-size="17" font-weight="700" fill="#fff" text-anchor="middle">課題</text>
<text x="300.5" y="246" font-size="19" font-weight="700" fill="#000000" text-anchor="middle">告知だけで終わる例</text>
<circle cx="81" cy="285" r="3.5" fill="#4A4A4A"/>
<text x="94" y="290" font-size="15" font-weight="400" fill="#333333" text-anchor="start">当日に来店が集中し混雑</text>
<circle cx="81" cy="319" r="3.5" fill="#4A4A4A"/>
<text x="94" y="324" font-size="15" font-weight="400" fill="#333333" text-anchor="start">対応しきれず機会損失</text>
<circle cx="81" cy="353" r="3.5" fill="#4A4A4A"/>
<text x="94" y="358" font-size="15" font-weight="400" fill="#333333" text-anchor="start">一過性の来店で終わる</text>
<rect x="647" y="170" width="505" height="260" rx="16" fill="#FFFFFF" stroke="#00BF63" stroke-width="1"/>
<circle cx="899.5" cy="170" r="38" fill="#00BF63"/>
<text x="899.5" y="177" font-size="17" font-weight="700" fill="#fff" text-anchor="middle">解決</text>
<text x="899.5" y="246" font-size="19" font-weight="700" fill="#000000" text-anchor="middle">仕組み化した例</text>
<circle cx="680" cy="285" r="3.5" fill="#00BF63"/>
<text x="693" y="290" font-size="15" font-weight="400" fill="#333333" text-anchor="start">事前決済案内で分散来店</text>
<circle cx="680" cy="319" r="3.5" fill="#00BF63"/>
<text x="693" y="324" font-size="15" font-weight="400" fill="#333333" text-anchor="start">混雑を緩和し機会損失減</text>
<circle cx="680" cy="353" r="3.5" fill="#00BF63"/>
<text x="693" y="358" font-size="15" font-weight="400" fill="#333333" text-anchor="start">振り返りを次回配信に反映</text>
<circle cx="680" cy="387" r="3.5" fill="#00BF63"/>
<text x="693" y="392" font-size="15" font-weight="400" fill="#333333" text-anchor="start">セグメント化で再来店促進</text>
<path d="M578,272 L622,300 L578,328 Z" fill="url(#g)"/>
</svg>