<svg xmlns="http://www.w3.org/2000/svg" viewBox="0 0 1200 560" font-family="'Hiragino Sans','Noto Sans JP',sans-serif">
<defs>
<linearGradient id="g" x1="0" y1="0" x2="1" y2="1"><stop offset="0" stop-color="#0499AF"/><stop offset="1" stop-color="#77D55C"/></linearGradient>
<marker id="ar" viewBox="0 0 10 10" refX="8" refY="5" markerWidth="7" markerHeight="7" orient="auto"><path d="M0 0 L10 5 L0 10 z" fill="#B7C2C2"/></marker>
</defs>
<rect x="1" y="1" width="1198" height="558" rx="16" fill="#FFFFFF" stroke="#D9D9D9" stroke-width="1"/>

<rect x="48" y="40" width="148" height="46" rx="23" fill="url(#g)"/>
<text x="122" y="71" font-size="20" font-weight="700" fill="#fff" text-anchor="middle" letter-spacing="4">用語集</text>
<text x="224" y="72" font-size="25" font-weight="700" fill="#000000" text-anchor="start">マーケティング用語50選｜実務で登場する順番</text>

<rect x="48" y="118" width="1104" height="64" rx="12" fill="#F4FBF7" stroke="#CDEBDC" stroke-width="1"/>
<text x="72" y="147" font-size="15" font-weight="700" fill="#00761F" text-anchor="start">土台</text>
<text x="124" y="147" font-size="15" font-weight="400" fill="#333333" text-anchor="start">数字の用語 13語｜CPA・CPO・CV・CVR・LTV・ROAS・ROI・CPC・インプ・CTR・PV・KGI・KPI</text>
<text x="72" y="170" font-size="13" font-weight="400" fill="#6B7676" text-anchor="start">どの段階の会話でも共通で使う、良し悪しを判断するための言葉</text>

<g>
<rect x="48" y="218" width="252" height="282" rx="16" fill="#FFFFFF" stroke="url(#g)" stroke-width="2"/>
<circle cx="64" cy="220" r="26" fill="url(#g)"/>
<text x="64" y="227" font-size="18" font-weight="700" fill="#fff" text-anchor="middle">01</text>
<text x="174" y="276" font-size="19" font-weight="700" fill="#000000" text-anchor="middle">戦略・準備</text>
<text x="174" y="299" font-size="13" font-weight="400" fill="#6B7676" text-anchor="middle">誰に何をどう伝えるか</text>
<text x="72" y="336" font-size="14" fill="#333333">DRM／リスト</text>
<text x="72" y="362" font-size="14" fill="#333333">リストマーケ</text>
<text x="72" y="388" font-size="14" fill="#333333">ファンマーケ</text>
<text x="72" y="414" font-size="14" fill="#333333">カスタマージャーニー</text>
<text x="72" y="440" font-size="14" fill="#333333">ペルソナ／セグメント</text>
<text x="72" y="466" font-size="14" fill="#333333">コピー／ブランディング</text>
<text x="276" y="490" font-size="13" font-weight="700" fill="#00761F" text-anchor="end">12語</text>
</g>

<line x1="304" y1="359" x2="328" y2="359" stroke="#B7C2C2" stroke-width="2" marker-end="url(#ar)"/>

<g>
<rect x="332" y="218" width="252" height="282" rx="16" fill="#FFFFFF" stroke="url(#g)" stroke-width="2"/>
<circle cx="348" cy="220" r="26" fill="url(#g)"/>
<text x="348" y="227" font-size="18" font-weight="700" fill="#fff" text-anchor="middle">02</text>
<text x="458" y="276" font-size="19" font-weight="700" fill="#000000" text-anchor="middle">集客</text>
<text x="458" y="299" font-size="13" font-weight="400" fill="#6B7676" text-anchor="middle">存在を知ってもらう</text>
<text x="356" y="336" font-size="14" fill="#333333">アド（広告）</text>
<text x="356" y="362" font-size="14" fill="#333333">リスティング広告</text>
<text x="356" y="388" font-size="14" fill="#333333">ディスプレイ広告</text>
<text x="356" y="414" font-size="14" fill="#333333">リターゲティング広告</text>
<text x="356" y="440" font-size="14" fill="#333333">SNS広告／エンゲージ</text>
<text x="356" y="466" font-size="14" fill="#333333">オウンドメディア／SEO</text>
<text x="560" y="490" font-size="13" font-weight="700" fill="#00761F" text-anchor="end">9語</text>
</g>

<line x1="588" y1="359" x2="612" y2="359" stroke="#B7C2C2" stroke-width="2" marker-end="url(#ar)"/>

<g>
<rect x="616" y="218" width="252" height="282" rx="16" fill="#FFFFFF" stroke="url(#g)" stroke-width="2"/>
<circle cx="632" cy="220" r="26" fill="url(#g)"/>
<text x="632" y="227" font-size="18" font-weight="700" fill="#fff" text-anchor="middle">03</text>
<text x="742" y="276" font-size="19" font-weight="700" fill="#000000" text-anchor="middle">LP・リスト獲得</text>
<text x="742" y="299" font-size="13" font-weight="400" fill="#6B7676" text-anchor="middle">連絡先を預けてもらう</text>
<text x="640" y="336" font-size="14" fill="#333333">LP（ランディング）</text>
<text x="640" y="362" font-size="14" fill="#333333">LPO</text>
<text x="640" y="388" font-size="14" fill="#333333">オプトイン</text>
<text x="640" y="414" font-size="14" fill="#333333">ダブルオプトイン</text>
<text x="640" y="440" font-size="14" fill="#333333">アフィリエイト</text>
<text x="640" y="466" font-size="14" fill="#333333">バズマーケティング</text>
<text x="844" y="490" font-size="13" font-weight="700" fill="#00761F" text-anchor="end">6語</text>
</g>

<line x1="872" y1="359" x2="896" y2="359" stroke="#B7C2C2" stroke-width="2" marker-end="url(#ar)"/>

<g>
<rect x="900" y="218" width="252" height="282" rx="16" fill="#FFFFFF" stroke="url(#g)" stroke-width="2"/>
<circle cx="916" cy="220" r="26" fill="url(#g)"/>
<text x="916" y="227" font-size="18" font-weight="700" fill="#fff" text-anchor="middle">04</text>
<text x="1026" y="276" font-size="19" font-weight="700" fill="#000000" text-anchor="middle">販売</text>
<text x="1026" y="299" font-size="13" font-weight="400" fill="#6B7676" text-anchor="middle">買ってもらう・単価を上げる</text>
<text x="924" y="336" font-size="14" fill="#333333">ローンチ（2種）</text>
<text x="924" y="362" font-size="14" fill="#333333">オファー</text>
<text x="924" y="388" font-size="14" fill="#333333">クロージング</text>
<text x="924" y="414" font-size="14" fill="#333333">セールスレター</text>
<text x="924" y="440" font-size="14" fill="#333333">ウェビナー</text>
<text x="924" y="466" font-size="14" fill="#333333">アップ／クロス／ダウン</text>
<text x="1128" y="490" font-size="13" font-weight="700" fill="#00761F" text-anchor="end">10語</text>
</g>

<text x="600" y="534" font-size="13" fill="#6B7676" text-anchor="middle">株式会社LAYR</text>
</svg>
